<?xml version="1.0" encoding="utf-8"?>
<!-- Generator: Adobe Illustrator 26.3.1, SVG Export Plug-In . SVG Version: 6.00 Build 0)  -->
<svg version="1.1" id="Laag_1" xmlns="http://www.w3.org/2000/svg" xmlns:xlink="http://www.w3.org/1999/xlink" x="0px" y="0px"
	 viewBox="0 0 70 70" style="enable-background:new 0 0 70 70;" xml:space="preserve">
<style type="text/css">
	.Slagschaduw{fill:none;}
	.Afgeronde_x0020_hoeken_x0020_2_x0020_pt{fill:#FFFFFF;stroke:#000000;stroke-miterlimit:10;}
	.X_x0020_actief_x0020_weerspiegelen{fill:none;}
	.Zachte_x0020_schuine_x0020_kant{fill:url(#SVGID_1_);}
	.Schemering{fill:#FFFFFF;}
	.Gebladerte_AS{fill:#FFDD00;}
	.Pompadoer_AS{fill-rule:evenodd;clip-rule:evenodd;fill:#51AEE2;}
	.st0{fill:#8DA3B0;}
</style>
<linearGradient id="SVGID_1_" gradientUnits="userSpaceOnUse" x1="0" y1="0" x2="0.7071" y2="0.7071">
	<stop  offset="0" style="stop-color:#E6E6EB"/>
	<stop  offset="0.1738" style="stop-color:#E2E2E6"/>
	<stop  offset="0.352" style="stop-color:#D5D4D8"/>
	<stop  offset="0.5323" style="stop-color:#C0BFC2"/>
	<stop  offset="0.7139" style="stop-color:#A4A2A4"/>
	<stop  offset="0.8949" style="stop-color:#828282"/>
	<stop  offset="1" style="stop-color:#6B6E6E"/>
</linearGradient>
<g>
	<g>
		<path class="st0" d="M33.5,57.3H17.2v-3.4l5.9-5.9c1.7-1.8,2.9-3,3.4-3.7c0.5-0.7,0.9-1.3,1.1-1.9c0.2-0.6,0.4-1.2,0.4-1.8
			c0-0.9-0.3-1.6-0.8-2.1c-0.5-0.5-1.2-0.7-2.1-0.7c-0.9,0-1.8,0.2-2.6,0.6s-1.7,1-2.7,1.8L17.1,37c1.1-1,2.1-1.7,2.9-2.1
			s1.6-0.7,2.5-0.9s1.9-0.3,3-0.3c1.5,0,2.7,0.3,3.9,0.8c1.1,0.5,2,1.3,2.6,2.2c0.6,1,0.9,2.1,0.9,3.3c0,1.1-0.2,2.1-0.6,3
			c-0.4,0.9-1,1.9-1.8,2.9c-0.8,1-2.2,2.4-4.2,4.2l-3,2.8v0.2h10.2V57.3z"/>
		<path class="st0" d="M35.7,47.4c0-4.6,1-8.1,2.9-10.3c2-2.3,4.9-3.4,8.8-3.4c1.3,0,2.4,0.1,3.1,0.2v3.9c-0.9-0.2-1.9-0.3-2.8-0.3
			c-1.7,0-3.1,0.3-4.1,0.8c-1.1,0.5-1.9,1.3-2.4,2.3c-0.5,1-0.8,2.4-0.9,4.3h0.2c1.1-1.8,2.7-2.7,5.1-2.7c2.1,0,3.7,0.7,4.9,2
			s1.8,3.1,1.8,5.4c0,2.5-0.7,4.5-2.1,5.9c-1.4,1.5-3.4,2.2-5.8,2.2c-1.7,0-3.2-0.4-4.5-1.2c-1.3-0.8-2.3-2-3-3.5
			C36.1,51.4,35.7,49.6,35.7,47.4z M44.1,53.7c1.1,0,1.9-0.4,2.4-1.1c0.6-0.7,0.8-1.7,0.8-3c0-1.1-0.3-2-0.8-2.7s-1.3-1-2.4-1
			c-1,0-1.9,0.3-2.6,1c-0.7,0.6-1.1,1.4-1.1,2.3c0,1.3,0.3,2.3,1,3.2C42.3,53.3,43.1,53.7,44.1,53.7z"/>
	</g>
	<path class="st0" d="M59.4,9.2h-1.6V6.4c0-2.1-1.7-3.9-3.9-3.9h-1.4c-2.1,0-3.9,1.7-3.9,3.9v2.8H21.3V6.4c0-2.1-1.7-3.9-3.9-3.9
		h-1.4c-2.1,0-3.9,1.7-3.9,3.9v2.8h-1.6c-2.9,0-5.3,2.4-5.3,5.3v47.8c0,2.9,2.4,5.3,5.3,5.3h48.7c2.9,0,5.3-2.4,5.3-5.3V14.4
		C64.6,11.5,62.3,9.2,59.4,9.2L59.4,9.2z M50.8,9.2V6.4c0-1,0.8-1.8,1.8-1.8h1.4c1,0,1.8,0.8,1.8,1.8v7.7c0,1-0.8,1.8-1.8,1.8h-1.4
		c-1,0-1.8-0.8-1.8-1.8V9.2z M14.3,9.2V6.4c0-1,0.8-1.8,1.8-1.8h1.4c1,0,1.8,0.8,1.8,1.8v7.7c0,1-0.8,1.8-1.8,1.8h-1.4
		c-1,0-1.8-0.8-1.8-1.8V9.2z M62.5,62.2c0,1.7-1.4,3.2-3.2,3.2H10.6c-1.7,0-3.2-1.4-3.2-3.2V25.9h55L62.5,62.2z M62.5,23.8h-55v-9.4
		c0-1.7,1.4-3.2,3.2-3.2h1.6v2.8c0,2.1,1.7,3.9,3.9,3.9h1.4c1.9,0,3.4-1.3,3.8-3.1c0.1-0.3,0.1-0.5,0.1-0.8v-2.8h27.4v2.8
		c0,0.3,0,0.5,0.1,0.8c0.4,1.8,1.9,3.1,3.8,3.1h1.4c2.1,0,3.9-1.7,3.9-3.9v-2.8h1.6c1.7,0,3.2,1.4,3.2,3.2L62.5,23.8z"/>
</g>
</svg>
