<?xml version="1.0" encoding="utf-8"?>
<!-- Generator: Adobe Illustrator 26.3.1, SVG Export Plug-In . SVG Version: 6.00 Build 0)  -->
<svg version="1.1" id="Laag_1" xmlns="http://www.w3.org/2000/svg" xmlns:xlink="http://www.w3.org/1999/xlink" x="0px" y="0px"
	 viewBox="0 0 32 32" style="enable-background:new 0 0 32 32;" xml:space="preserve">
<style type="text/css">
	.Slagschaduw{fill:none;}
	.Afgeronde_x0020_hoeken_x0020_2_x0020_pt{fill:#FFFFFF;stroke:#000000;stroke-miterlimit:10;}
	.X_x0020_actief_x0020_weerspiegelen{fill:none;}
	.Zachte_x0020_schuine_x0020_kant{fill:url(#SVGID_1_);}
	.Schemering{fill:#FFFFFF;}
	.Gebladerte_AS{fill:#FFDD00;}
	.Pompadoer_AS{fill-rule:evenodd;clip-rule:evenodd;fill:#51AEE2;}
	.st0{fill:#FFFFFF;}
</style>
<linearGradient id="SVGID_1_" gradientUnits="userSpaceOnUse" x1="0" y1="0" x2="0.7071" y2="0.7071">
	<stop  offset="0" style="stop-color:#E6E6EB"/>
	<stop  offset="0.1738" style="stop-color:#E2E2E6"/>
	<stop  offset="0.352" style="stop-color:#D5D4D8"/>
	<stop  offset="0.5323" style="stop-color:#C0BFC2"/>
	<stop  offset="0.7139" style="stop-color:#A4A2A4"/>
	<stop  offset="0.8949" style="stop-color:#828282"/>
	<stop  offset="1" style="stop-color:#6B6E6E"/>
</linearGradient>
<g>
	<path class="st0" d="M19.8,19.9c0-1.7-0.8-2.8-1.9-3.3c-0.4-0.2-0.9-0.3-1.3-0.3c-0.5,0-0.9,0.1-1.3,0.3c-1.1,0.5-1.9,1.6-1.9,3.3
		c0,0.5,0.8,0.9,1.8,1.1c0.4,0.1,0.9,0.1,1.4,0.1s1,0,1.4-0.1C19,20.8,19.8,20.4,19.8,19.9L19.8,19.9z M11.3,11.4
		c0.5,0,1,0.2,1.3,0.5c0.3,0.3,0.5,0.8,0.5,1.3c0,0.5-0.2,1-0.5,1.3c-0.3,0.3-0.8,0.5-1.3,0.5s-1-0.2-1.3-0.5
		c-0.3-0.3-0.5-0.8-0.5-1.3c0-0.5,0.2-1,0.5-1.3C10.3,11.6,10.8,11.4,11.3,11.4z M12.1,12.5c-0.2-0.2-0.5-0.3-0.8-0.3
		c-0.3,0-0.6,0.1-0.8,0.3c-0.2,0.2-0.3,0.5-0.3,0.8c0,0.3,0.1,0.6,0.3,0.8c0.2,0.2,0.5,0.3,0.8,0.3c0.3,0,0.6-0.1,0.8-0.3
		c0.2-0.2,0.3-0.5,0.3-0.8C12.4,12.9,12.2,12.7,12.1,12.5z M13.2,17.4c-0.3-0.4-0.8-0.7-1.2-0.9c-0.4-0.1-0.9-0.1-1.3,0
		c-0.4,0.1-0.8,0.3-1.1,0.7c-0.4,0.4-0.7,1.1-0.7,1.9c0,0,0,0.1,0,0.1c0,0.1,0.2,0.2,0.4,0.3l0,0c0.2,0.1,0.6,0.2,0.9,0.3
		c0.7,0.1,1.6,0.1,2.3,0C12.6,18.9,12.8,18.1,13.2,17.4L13.2,17.4z M12.8,20.6c-0.8,0.2-1.8,0.2-2.7,0c-0.4-0.1-0.8-0.2-1.1-0.4l0,0
		c-0.4-0.2-0.6-0.5-0.7-0.8c0-0.1,0-0.2,0-0.3c0-1.1,0.4-1.9,0.9-2.5c0.4-0.4,0.9-0.7,1.5-0.9c0.6-0.1,1.1-0.1,1.7,0
		c0.6,0.2,1.1,0.5,1.5,1c0.4-0.4,0.8-0.7,1.2-0.9c0.5-0.2,1.1-0.3,1.6-0.3c0.6,0,1.1,0.1,1.6,0.3c0.5,0.2,0.9,0.5,1.2,0.9
		c0.4-0.5,0.9-0.8,1.5-1c0.5-0.2,1.1-0.2,1.7,0c0.6,0.1,1.1,0.4,1.5,0.9c0.5,0.6,0.9,1.4,0.9,2.5c0,0.1,0,0.2,0,0.3
		c-0.1,0.3-0.4,0.6-0.7,0.8l0,0c-0.3,0.2-0.7,0.3-1.2,0.4c-0.8,0.2-1.9,0.1-2.7,0c-0.4,0.6-1.2,1-2.3,1.1c-0.5,0.1-1,0.1-1.5,0.1
		c-0.5,0-1.1,0-1.5-0.1C14,21.6,13.1,21.2,12.8,20.6L12.8,20.6z M21.8,11.4c0.5,0,1,0.2,1.3,0.5c0.3,0.3,0.5,0.8,0.5,1.3
		s-0.2,1-0.5,1.3c-0.3,0.3-0.8,0.5-1.3,0.5s-1-0.2-1.3-0.5c-0.3-0.3-0.5-0.8-0.5-1.3s0.2-1,0.5-1.3C20.8,11.6,21.3,11.4,21.8,11.4z
		 M22.6,12.5c-0.2-0.2-0.5-0.3-0.8-0.3c-0.3,0-0.6,0.1-0.8,0.3c-0.2,0.2-0.3,0.5-0.3,0.8c0,0.3,0.1,0.6,0.3,0.8
		c0.2,0.2,0.5,0.3,0.8,0.3c0.3,0,0.6-0.1,0.8-0.3c0.2-0.2,0.3-0.5,0.3-0.8C22.9,12.9,22.7,12.7,22.6,12.5z M20.6,19.9
		c0.7,0.2,1.6,0.2,2.3,0c0.4-0.1,0.7-0.2,0.9-0.3l0,0c0.2-0.1,0.3-0.2,0.3-0.3c0,0,0-0.1,0-0.1c0-0.8-0.3-1.5-0.7-1.9
		c-0.3-0.3-0.7-0.5-1.1-0.7c-0.4-0.1-0.9-0.1-1.3,0c-0.5,0.1-0.9,0.4-1.2,0.9C20.3,18.1,20.5,18.9,20.6,19.9L20.6,19.9z M16.6,10.2
		c0.6,0,1.2,0.3,1.6,0.7c0.4,0.4,0.7,1,0.7,1.6c0,0.6-0.3,1.2-0.7,1.6c-0.4,0.4-1,0.7-1.6,0.7c-0.6,0-1.2-0.3-1.6-0.7
		c-0.4-0.4-0.7-1-0.7-1.6c0-0.6,0.3-1.2,0.7-1.6C15.4,10.5,15.9,10.2,16.6,10.2z M17.6,11.5C17.3,11.2,17,11,16.6,11
		c-0.4,0-0.8,0.2-1.1,0.4c-0.3,0.3-0.4,0.6-0.4,1.1c0,0.4,0.2,0.8,0.4,1.1c0.3,0.3,0.6,0.4,1.1,0.4c0.4,0,0.8-0.2,1.1-0.4
		c0.3-0.3,0.4-0.6,0.4-1.1C18,12.1,17.9,11.7,17.6,11.5z"/>
	<path class="st0" d="M16.6,1.4C8.5,1.4,1.9,7.9,1.9,16c0,2.7,0.7,5.2,2,7.3c-0.3,1.6-1.1,4.5-3.1,6.6c0,0,3.8-2.3,6.1-2.9
		c2.6,2.3,6,3.7,9.7,3.7c8.1,0,14.6-6.6,14.6-14.6S24.6,1.4,16.6,1.4z M16.6,29.1C9.3,29.1,3.4,23.2,3.4,16S9.3,2.9,16.6,2.9
		S29.7,8.8,29.7,16S23.8,29.1,16.6,29.1z"/>
</g>
</svg>
