<?xml version="1.0" encoding="utf-8"?>
<!-- Generator: Adobe Illustrator 26.3.1, SVG Export Plug-In . SVG Version: 6.00 Build 0)  -->
<svg version="1.1" id="Laag_1" xmlns="http://www.w3.org/2000/svg" xmlns:xlink="http://www.w3.org/1999/xlink" x="0px" y="0px"
	 viewBox="0 0 70 70" style="enable-background:new 0 0 70 70;" xml:space="preserve">
<style type="text/css">
	.Slagschaduw{fill:none;}
	.Afgeronde_x0020_hoeken_x0020_2_x0020_pt{fill:#FFFFFF;stroke:#000000;stroke-miterlimit:10;}
	.X_x0020_actief_x0020_weerspiegelen{fill:none;}
	.Zachte_x0020_schuine_x0020_kant{fill:url(#SVGID_1_);}
	.Schemering{fill:#FFFFFF;}
	.Gebladerte_AS{fill:#FFDD00;}
	.Pompadoer_AS{fill-rule:evenodd;clip-rule:evenodd;fill:#51AEE2;}
	.st0{fill:#8DA3B0;}
</style>
<linearGradient id="SVGID_1_" gradientUnits="userSpaceOnUse" x1="0" y1="0" x2="0.7071" y2="0.7071">
	<stop  offset="0" style="stop-color:#E6E6EB"/>
	<stop  offset="0.1738" style="stop-color:#E2E2E6"/>
	<stop  offset="0.352" style="stop-color:#D5D4D8"/>
	<stop  offset="0.5323" style="stop-color:#C0BFC2"/>
	<stop  offset="0.7139" style="stop-color:#A4A2A4"/>
	<stop  offset="0.8949" style="stop-color:#828282"/>
	<stop  offset="1" style="stop-color:#6B6E6E"/>
</linearGradient>
<g>
	<path class="st0" d="M56.3,53l-4.4-2.4c-0.1,0-14.1-7.5-29.4-4.4l-2.1,0.4l-4.7-19.2l2-0.6c9.6-3.2,18-9.3,23.9-17.6L44.5,5
		L56.3,53z M30.3,40.9c6.6,0.1,13.2,1.3,19.4,3.8l-7.2-29.4C36.7,22,29.3,27.2,21,30.3l2.7,11.1h0C25.9,41.1,28.1,40.9,30.3,40.9
		L30.3,40.9z"/>
	<path class="st0" d="M7.1,49.9L2.4,30.5l9.7-2.4l1.1,4.3l-5.4,1.3l2.6,10.7l11.2-2.8l1.1,4.3L7.1,49.9z"/>
	<path class="st0" d="M55.9,25.3l8.1-2l1.1,4.3l-8.1,2L55.9,25.3z"/>
	<path class="st0" d="M52.3,15.2l6.4-5.4l2.9,3.4l-6.4,5.4L52.3,15.2z"/>
	<path class="st0" d="M58.5,40.2l1-4.3l8.2,1.8l-1,4.3L58.5,40.2z"/>
	<path class="st0" d="M13.2,46.1l4.3-1.1l4.7,18.9L17.9,65L13.2,46.1z"/>
</g>
</svg>
