<?xml version="1.0" encoding="utf-8"?>
<!-- Generator: Adobe Illustrator 26.3.1, SVG Export Plug-In . SVG Version: 6.00 Build 0)  -->
<svg version="1.1" id="Laag_1" xmlns="http://www.w3.org/2000/svg" xmlns:xlink="http://www.w3.org/1999/xlink" x="0px" y="0px"
	 viewBox="0 0 70 70" style="enable-background:new 0 0 70 70;" xml:space="preserve">
<style type="text/css">
	.Slagschaduw{fill:none;}
	.Afgeronde_x0020_hoeken_x0020_2_x0020_pt{fill:#FFFFFF;stroke:#000000;stroke-miterlimit:10;}
	.X_x0020_actief_x0020_weerspiegelen{fill:none;}
	.Zachte_x0020_schuine_x0020_kant{fill:url(#SVGID_1_);}
	.Schemering{fill:#FFFFFF;}
	.Gebladerte_AS{fill:#FFDD00;}
	.Pompadoer_AS{fill-rule:evenodd;clip-rule:evenodd;fill:#51AEE2;}
	.st0{fill:#8DA3B0;}
</style>
<linearGradient id="SVGID_1_" gradientUnits="userSpaceOnUse" x1="0" y1="0" x2="0.7071" y2="0.7071">
	<stop  offset="0" style="stop-color:#E6E6EB"/>
	<stop  offset="0.1738" style="stop-color:#E2E2E6"/>
	<stop  offset="0.352" style="stop-color:#D5D4D8"/>
	<stop  offset="0.5323" style="stop-color:#C0BFC2"/>
	<stop  offset="0.7139" style="stop-color:#A4A2A4"/>
	<stop  offset="0.8949" style="stop-color:#828282"/>
	<stop  offset="1" style="stop-color:#6B6E6E"/>
</linearGradient>
<path class="st0" d="M46.9,40.1c0-6.1-2.9-10-6.7-11.6c-1.5-0.6-3.1-1-4.7-1c-1.6,0-3.2,0.3-4.7,1c-3.8,1.7-6.7,5.5-6.7,11.6
	c0,1.8,2.8,3.1,6.4,3.8c1.6,0.3,3.3,0.4,5,0.4c1.7,0,3.4-0.1,5-0.4C44.1,43.2,46.9,41.9,46.9,40.1L46.9,40.1z M16.9,9.6
	c1.8,0,3.5,0.7,4.7,1.9c1.2,1.2,1.9,2.9,1.9,4.7s-0.7,3.5-1.9,4.7c-1.2,1.2-2.9,1.9-4.7,1.9c-1.8,0-3.5-0.7-4.7-1.9
	c-1.2-1.2-1.9-2.9-1.9-4.7s0.7-3.5,1.9-4.7C13.4,10.4,15,9.6,16.9,9.6z M19.5,13.6c-0.7-0.7-1.6-1.1-2.7-1.1c-1,0-2,0.4-2.7,1.1
	c-0.7,0.7-1.1,1.6-1.1,2.7c0,1,0.4,2,1.1,2.7c0.7,0.7,1.6,1.1,2.7,1.1c1,0,2-0.4,2.7-1.1c0.7-0.7,1.1-1.6,1.1-2.7
	C20.6,15.2,20.2,14.3,19.5,13.6z M23.6,31.2c-1.1-1.5-2.7-2.6-4.4-3c-1.5-0.4-3.1-0.4-4.5,0c-1.5,0.4-2.8,1.2-3.9,2.3
	c-1.4,1.6-2.4,3.8-2.4,6.9c0,0.1,0,0.2,0,0.3c0.1,0.4,0.6,0.9,1.3,1.2l0.1,0c0.9,0.5,2,0.8,3.2,1c2.6,0.5,5.8,0.4,8.3-0.1
	C21.3,36.4,22.2,33.5,23.6,31.2L23.6,31.2z M22,42.6c-2.9,0.7-6.6,0.7-9.6,0.2c-1.5-0.3-2.9-0.7-4.1-1.3l-0.1,0
	c-1.3-0.7-2.3-1.7-2.6-2.9c-0.1-0.4-0.2-0.7-0.2-1.1c0-3.8,1.2-6.7,3.2-8.8c1.5-1.6,3.3-2.6,5.3-3.1c2-0.5,4.1-0.5,6,0.1
	c2,0.6,3.9,1.7,5.4,3.4c1.3-1.3,2.7-2.3,4.4-3.1c1.8-0.8,3.8-1.2,5.8-1.2c2,0,4,0.4,5.8,1.2c1.6,0.7,3.1,1.7,4.4,3.1
	c1.5-1.7,3.4-2.9,5.4-3.4c2-0.5,4-0.6,6-0.1c2,0.5,3.8,1.6,5.3,3.1c1.9,2.1,3.2,5,3.2,8.8c0,0.4-0.1,0.7-0.2,1.1
	c-0.4,1.2-1.3,2.1-2.5,2.9l-0.1,0c-1.1,0.6-2.6,1.1-4.2,1.4c-3,0.5-6.6,0.5-9.6-0.2c-1.3,2.1-4.4,3.4-8,4.1
	c-1.7,0.3-3.6,0.5-5.5,0.5c-1.9,0-3.7-0.2-5.5-0.5C26.4,46,23.4,44.6,22,42.6L22,42.6z M54.2,9.6c1.8,0,3.5,0.7,4.7,1.9
	c1.2,1.2,1.9,2.9,1.9,4.7s-0.7,3.5-1.9,4.7c-1.2,1.2-2.9,1.9-4.7,1.9s-3.5-0.7-4.7-1.9c-1.2-1.2-1.9-2.9-1.9-4.7s0.7-3.5,1.9-4.7
	C50.7,10.4,52.4,9.6,54.2,9.6z M56.8,13.6c-0.7-0.7-1.6-1.1-2.7-1.1c-1,0-2,0.4-2.7,1.1c-0.7,0.7-1.1,1.6-1.1,2.7c0,1,0.4,2,1.1,2.7
	c0.7,0.7,1.6,1.1,2.7,1.1c1,0,2-0.4,2.7-1.1c0.7-0.7,1.1-1.6,1.1-2.7C58,15.2,57.5,14.3,56.8,13.6z M49.7,39.8
	c2.5,0.6,5.7,0.6,8.3,0.1c1.3-0.2,2.4-0.6,3.3-1.1l0.1,0c0.6-0.4,1.1-0.8,1.2-1.2c0-0.1,0-0.2,0-0.3c0-3-0.9-5.3-2.4-6.9
	c-1.1-1.2-2.5-1.9-3.9-2.3c-1.5-0.4-3.1-0.4-4.5,0c-1.7,0.5-3.3,1.5-4.4,3C48.8,33.5,49.7,36.4,49.7,39.8L49.7,39.8z M35.5,5.7
	c2.2,0,4.3,0.9,5.7,2.4c1.5,1.5,2.4,3.5,2.4,5.7c0,2.2-0.9,4.3-2.4,5.7c-1.5,1.5-3.5,2.4-5.7,2.4c-2.2,0-4.3-0.9-5.7-2.4
	c-1.5-1.5-2.4-3.5-2.4-5.7c0-2.2,0.9-4.3,2.4-5.7C31.2,6.6,33.3,5.7,35.5,5.7z M39.3,10c-1-1-2.3-1.5-3.7-1.5
	c-1.5,0-2.8,0.6-3.7,1.5c-1,1-1.5,2.3-1.5,3.7c0,1.5,0.6,2.8,1.5,3.7c1,1,2.3,1.5,3.7,1.5c1.5,0,2.8-0.6,3.7-1.5
	c1-1,1.5-2.3,1.5-3.7C40.8,12.3,40.2,11,39.3,10z"/>
</svg>
