<?xml version="1.0" encoding="utf-8"?>
<!-- Generator: Adobe Illustrator 26.3.1, SVG Export Plug-In . SVG Version: 6.00 Build 0)  -->
<svg version="1.1" id="Laag_1" xmlns="http://www.w3.org/2000/svg" xmlns:xlink="http://www.w3.org/1999/xlink" x="0px" y="0px"
	 viewBox="0 0 37 37" style="enable-background:new 0 0 37 37;" xml:space="preserve">
<style type="text/css">
	.Slagschaduw{fill:none;}
	.Afgeronde_x0020_hoeken_x0020_2_x0020_pt{fill:#FFFFFF;stroke:#000000;stroke-miterlimit:10;}
	.X_x0020_actief_x0020_weerspiegelen{fill:none;}
	.Zachte_x0020_schuine_x0020_kant{fill:url(#SVGID_1_);}
	.Schemering{fill:#FFFFFF;}
	.Gebladerte_AS{fill:#FFDD00;}
	.Pompadoer_AS{fill-rule:evenodd;clip-rule:evenodd;fill:#51AEE2;}
	.st0{fill:#2F4890;}
</style>
<linearGradient id="SVGID_1_" gradientUnits="userSpaceOnUse" x1="0" y1="0" x2="0.7071" y2="0.7071">
	<stop  offset="0" style="stop-color:#E6E6EB"/>
	<stop  offset="0.1738" style="stop-color:#E2E2E6"/>
	<stop  offset="0.352" style="stop-color:#D5D4D8"/>
	<stop  offset="0.5323" style="stop-color:#C0BFC2"/>
	<stop  offset="0.7139" style="stop-color:#A4A2A4"/>
	<stop  offset="0.8949" style="stop-color:#828282"/>
	<stop  offset="1" style="stop-color:#6B6E6E"/>
</linearGradient>
<path class="st0" d="M15.7,13.2c-1.7,0-3-1.3-3-3c0-1.7,1.3-3,3-3s3,1.3,3,3C18.7,11.8,17.3,13.2,15.7,13.2z M15.7,11.9
	c0.9,0,1.7-0.7,1.7-1.7s-0.7-1.7-1.7-1.7S14,9.3,14,10.2S14.8,11.9,15.7,11.9z M19.8,20.9l2.7,3.1c0.1,0.1,0.1,0.2,0.1,0.3l1,4.3
	c0.1,0.4-0.1,0.7-0.5,0.8c-0.4,0.1-0.7-0.1-0.8-0.5l-1-4.2l-3.5-4.2c0-0.1-0.1-0.1-0.1-0.2l-1.8-4.5c-1.5,0-3-0.2-4.4-0.7
	c-0.2-0.1-0.3-0.2-0.4-0.3l-2.3-4.3C8.6,10.2,8.7,9.8,9,9.6c0.3-0.2,0.7-0.1,0.9,0.3l2.2,4.1c1.3,0.5,2.7,0.6,4.1,0.5
	c1.4-0.1,2.7-0.5,3.8-1.1l1.6-4.1c0.1-0.3,0.5-0.5,0.9-0.4c0.3,0.1,0.5,0.5,0.4,0.9l-1.7,4.3c-0.1,0.1-0.1,0.3-0.3,0.3
	c-1.1,0.7-2.4,1.1-3.7,1.3l1.5,3.8l5.2,0.3c0.2,0,0.3,0.1,0.5,0.2l3.7,4c0.2,0.3,0.2,0.7,0,0.9c-0.3,0.2-0.7,0.2-0.9,0l-3.5-3.8
	L19.8,20.9z M14.3,29.8c-0.4,0-0.7-0.3-0.7-0.7c0-0.4,0.3-0.7,0.7-0.7H20c0.4,0,0.7,0.3,0.7,0.7c0,0.4-0.3,0.7-0.7,0.7H14.3z"/>
</svg>
