<?xml version="1.0" encoding="utf-8"?>
<!-- Generator: Adobe Illustrator 26.3.1, SVG Export Plug-In . SVG Version: 6.00 Build 0)  -->
<svg version="1.1" id="Laag_1" xmlns="http://www.w3.org/2000/svg" xmlns:xlink="http://www.w3.org/1999/xlink" x="0px" y="0px"
	 viewBox="0 0 512 512" style="enable-background:new 0 0 512 512;" xml:space="preserve">
<style type="text/css">
	.Slagschaduw{fill:none;}
	.Afgeronde_x0020_hoeken_x0020_2_x0020_pt{fill:#FFFFFF;stroke:#000000;stroke-miterlimit:10;}
	.X_x0020_actief_x0020_weerspiegelen{fill:none;}
	.Zachte_x0020_schuine_x0020_kant{fill:url(#SVGID_1_);}
	.Schemering{fill:#FFFFFF;}
	.Gebladerte_AS{fill:#FFDD00;}
	.Pompadoer_AS{fill-rule:evenodd;clip-rule:evenodd;fill:#51AEE2;}
	.st0{fill:#EDEDED;}
	.st1{fill:#FFFFFF;}
	.st2{fill:#304890;}
	.st3{fill:#54BBAE;}
	.st4{fill:none;}
</style>
<linearGradient id="SVGID_1_" gradientUnits="userSpaceOnUse" x1="0" y1="0" x2="0.7071" y2="0.7071">
	<stop  offset="0" style="stop-color:#E6E6EB"/>
	<stop  offset="0.1738" style="stop-color:#E2E2E6"/>
	<stop  offset="0.352" style="stop-color:#D5D4D8"/>
	<stop  offset="0.5323" style="stop-color:#C0BFC2"/>
	<stop  offset="0.7139" style="stop-color:#A4A2A4"/>
	<stop  offset="0.8949" style="stop-color:#828282"/>
	<stop  offset="1" style="stop-color:#6B6E6E"/>
</linearGradient>
<ellipse class="st0" cx="256" cy="462" rx="100.5" ry="13.5"/>
<g>
	<path class="st1" d="M257.4,457.7c111.8,0,202.4-90.6,202.4-202.4S369.2,52.9,257.4,52.9S55,143.5,55,255.3
		S145.6,457.7,257.4,457.7"/>
	<path class="st2" d="M365.6,200.2c-0.8-1.1-1.2-2.8-1.2-5.1v-18.8h8.7V174h-8.7v-7.2H363l-1.4,6.7l-4.4,1.2v1.6h4.4v19.2
		c0,3,0.6,5.2,1.9,6.6c1.2,1.4,3.2,2.1,5.8,2.1c1.7,0,3.2-0.2,4.5-0.7v-2.2c-1.3,0.3-2.8,0.4-4.5,0.4
		C367.7,201.8,366.4,201.2,365.6,200.2 M351.9,203.6v-19.4c0-7.2-3.4-10.8-10.1-10.8c-4.9,0-8.4,1.5-10.3,4.6h-0.2l-0.5-4.1h-2.3
		v29.7h2.7v-16.4c0-4,0.8-6.9,2.5-8.7c1.6-1.8,4.2-2.7,7.8-2.7c2.6,0,4.6,0.7,5.8,2c1.3,1.4,1.9,3.5,1.9,6.5v19.2H351.9z M295.3,174
		v19.4c0,7.2,3.4,10.8,10.1,10.8c4.9,0,8.4-1.5,10.3-4.6h0.2l0.5,4.1h2.3V174H316v16.4c0,4-0.8,6.9-2.5,8.7
		c-1.7,1.8-4.3,2.7-7.8,2.7c-2.6,0-4.6-0.7-5.8-2c-1.3-1.4-1.9-3.5-1.9-6.5V174H295.3z M267.3,198.8c-1.6-2-2.3-5.3-2.3-9.9V188
		c0-4.3,0.8-7.4,2.4-9.3c1.6-1.9,4.2-2.9,7.6-2.9c6.3,0,9.4,4.4,9.4,13.1c0,4.1-0.8,7.2-2.5,9.5c-1.7,2.3-4,3.4-7.1,3.4
		C271.4,201.8,268.9,200.8,267.3,198.8 M284.1,200.2c2.2-2.7,3.3-6.5,3.3-11.3c0-5-1.1-8.9-3.2-11.5c-2.1-2.6-5.2-3.9-9.2-3.9
		c-4.5,0-7.7,1.6-9.8,4.8h-0.2l-0.5-4.2h-2.3v43.1h2.7v-11.3c0-1.6,0-3.1-0.1-4.4l-0.1-2.3h0.2c2.1,3.4,5.4,5.1,10,5.1
		C278.8,204.2,281.8,202.9,284.1,200.2 M247.4,178.9c1.5,2,2.3,5.3,2.3,9.9v0.5c0,4.5-0.8,7.7-2.3,9.6c-1.6,1.9-4,2.9-7.4,2.9
		c-6.5,0-9.8-4.2-9.8-12.6c0-4.3,0.8-7.6,2.4-9.9c1.6-2.3,4.1-3.4,7.3-3.4C243.3,175.9,245.8,176.9,247.4,178.9 M230.5,177.5
		c-2.1,2.7-3.2,6.6-3.2,11.8c0,4.9,1.1,8.6,3.2,11.1c2.2,2.5,5.3,3.8,9.4,3.8c4.2,0,7.5-1.7,9.7-5.1h0.2l0.7,4.5h1.8v-42.5h-2.7
		v10.7c0,2.2,0.1,4.5,0.2,6.7h-0.2c-1.2-1.9-2.6-3.2-4.2-4c-1.6-0.8-3.4-1.2-5.6-1.2C235.8,173.4,232.7,174.8,230.5,177.5
		 M219.1,161.2h-2.7v42.5h2.7V161.2z M203.1,178.7c1.5,1.9,2.2,4.6,2.2,8.1H187c0.3-3.5,1.3-6.3,3-8.1c1.7-1.9,4-2.8,6.9-2.8
		C199.5,175.8,201.6,176.8,203.1,178.7 M202.4,203.8c1.4-0.3,3-0.8,4.6-1.5v-2.5c-2,0.8-3.6,1.3-4.9,1.5c-1.3,0.2-2.8,0.4-4.5,0.4
		c-3.5,0-6.1-1.1-8-3.2c-1.9-2.1-2.8-5.3-2.9-9.3h21.4V187c0-4.2-1-7.5-3-9.9c-2-2.4-4.8-3.7-8.3-3.7c-3.9,0-7.1,1.4-9.4,4.3
		c-2.3,2.8-3.5,6.6-3.5,11.4c0,4.8,1.2,8.5,3.6,11.2c2.4,2.7,5.8,4,10.1,4C199.4,204.2,201,204.1,202.4,203.8 M157.5,203.6
		l14.9-36.8h0.2c-0.2,2.3-0.3,4.4-0.3,6.6v30.3h2.8v-39.9h-4.2l-14.1,35.1h-0.2l-14.1-35.1h-4.3v39.9h2.7v-29.9
		c0-2.4-0.1-4.7-0.2-6.9h0.2l14.9,36.9H157.5z"/>
	<g>
		
			<image style="overflow:visible;opacity:0.1;" width="1033" height="335" xlink:href="B436530B8954302E.png"  transform="matrix(0.24 0 0 0.24 132 246.72)">
		</image>
		<g>
			<path class="st3" d="M373.7,320.8v-11.9h-27.5V253h-14.4v67.8H373.7z M317.7,308.9H293v-17.5h23v-11.8h-23v-14.9h24.7V253h-39
				v67.8h39V308.9z M261.5,253h-12.9v32.1c0,3.6,0.2,9.9,0.7,18.7H249L219.5,253h-18.1v67.8h12.8v-31.9c0-3.9-0.3-10.3-0.9-19.4h0.4
				l29.5,51.3h18.3V253z M169,283l23.7-30h-16l-18.4,23l-5.7,8v-31h-14.4v67.8h14.4v-24.2l6.1-4.4l17.8,28.6h16.3L169,283z"/>
		</g>
	</g>
	<rect x="65.1" y="308.7" class="st3" width="87.6" height="12.1"/>
	<rect x="378.7" y="308.7" class="st3" width="73.9" height="12.1"/>
	<rect x="48" y="48" class="st4" width="416" height="416"/>
	<g>
		<path class="st2" d="M256,464c-55.6,0-107.8-21.6-147.1-60.9C69.6,363.8,48,311.6,48,256c0-55.6,21.6-107.8,60.9-147.1
			C148.2,69.6,200.4,48,256,48c55.6,0,107.8,21.6,147.1,60.9C442.4,148.2,464,200.4,464,256c0,55.6-21.6,107.8-60.9,147.1
			S311.6,464,256,464z M256,59.2c-52.6,0-102,20.5-139.2,57.6S59.2,203.4,59.2,256c0,52.6,20.5,102,57.6,139.2
			c37.2,37.2,86.6,57.6,139.2,57.6c52.6,0,102-20.5,139.2-57.6c37.2-37.2,57.6-86.6,57.6-139.2c0-52.6-20.5-102-57.6-139.2
			C358,79.6,308.6,59.2,256,59.2z"/>
	</g>
</g>
</svg>
