<?xml version="1.0" encoding="utf-8"?>
<!-- Generator: Adobe Illustrator 26.3.1, SVG Export Plug-In . SVG Version: 6.00 Build 0)  -->
<svg version="1.1" id="Laag_1" xmlns="http://www.w3.org/2000/svg" xmlns:xlink="http://www.w3.org/1999/xlink" x="0px" y="0px"
	 viewBox="0 0 40 40" style="enable-background:new 0 0 40 40;" xml:space="preserve">
<style type="text/css">
	.Slagschaduw{fill:none;}
	.Afgeronde_x0020_hoeken_x0020_2_x0020_pt{fill:#FFFFFF;stroke:#1D1D1B;stroke-miterlimit:10;}
	.X_x0020_actief_x0020_weerspiegelen{fill:none;}
	.Zachte_x0020_schuine_x0020_kant{fill:url(#SVGID_1_);}
	.Schemering{fill:#FFFFFF;}
	.Gebladerte_AS{fill:#FFDC00;}
	.Pompadoer_AS{fill-rule:evenodd;clip-rule:evenodd;fill:#51ADE1;}
	.st0{fill:#8DA3B0;}
</style>
<linearGradient id="SVGID_1_" gradientUnits="userSpaceOnUse" x1="0" y1="0" x2="0.7071" y2="0.7071">
	<stop  offset="0" style="stop-color:#E6E6EA"/>
	<stop  offset="0.1761" style="stop-color:#E2E2E6"/>
	<stop  offset="0.3567" style="stop-color:#D6D6DA"/>
	<stop  offset="0.5393" style="stop-color:#C1C2C5"/>
	<stop  offset="0.7233" style="stop-color:#A5A6A8"/>
	<stop  offset="0.9067" style="stop-color:#808384"/>
	<stop  offset="1" style="stop-color:#6B6E6E"/>
</linearGradient>
<g>
	<g>
		<path class="st0" d="M19.1,32.9H9.7v-2l3.4-3.4c1-1,1.7-1.7,2-2.1c0.3-0.4,0.5-0.8,0.7-1.1s0.2-0.7,0.2-1.1c0-0.5-0.1-0.9-0.4-1.2
			c-0.3-0.3-0.7-0.4-1.2-0.4c-0.5,0-1,0.1-1.5,0.4s-1,0.6-1.5,1l-1.6-1.8c0.7-0.6,1.2-1,1.7-1.2s0.9-0.4,1.4-0.5s1.1-0.2,1.7-0.2
			c0.8,0,1.6,0.2,2.2,0.5s1.1,0.7,1.5,1.3c0.4,0.6,0.5,1.2,0.5,1.9c0,0.6-0.1,1.2-0.3,1.8c-0.2,0.5-0.6,1.1-1,1.7s-1.3,1.4-2.4,2.4
			l-1.7,1.6v0.1h5.9V32.9z"/>
		<path class="st0" d="M20.4,27.2c0-2.7,0.6-4.7,1.7-6c1.1-1.3,2.8-2,5.1-2c0.8,0,1.4,0,1.8,0.1v2.3c-0.5-0.1-1.1-0.2-1.6-0.2
			c-1,0-1.8,0.1-2.4,0.4c-0.6,0.3-1.1,0.7-1.4,1.3c-0.3,0.6-0.5,1.4-0.5,2.5h0.1c0.6-1,1.6-1.6,2.9-1.6c1.2,0,2.2,0.4,2.8,1.1
			c0.7,0.8,1,1.8,1,3.1c0,1.4-0.4,2.6-1.2,3.4s-1.9,1.3-3.4,1.3c-1,0-1.9-0.2-2.6-0.7c-0.7-0.5-1.3-1.1-1.7-2
			C20.6,29.5,20.4,28.4,20.4,27.2z M25.3,30.8c0.6,0,1.1-0.2,1.4-0.6c0.3-0.4,0.5-1,0.5-1.8c0-0.7-0.2-1.2-0.5-1.6s-0.8-0.6-1.4-0.6
			c-0.6,0-1.1,0.2-1.5,0.6c-0.4,0.4-0.6,0.8-0.6,1.3c0,0.7,0.2,1.4,0.6,1.9C24.2,30.6,24.7,30.8,25.3,30.8z"/>
	</g>
	<path class="st0" d="M34.1,5h-0.9V3.4c0-1.2-1-2.2-2.2-2.2h-0.8c-1.2,0-2.2,1-2.2,2.2V5H12.1V3.4c0-1.2-1-2.2-2.2-2.2H9
		c-1.2,0-2.2,1-2.2,2.2V5H5.9c-1.7,0-3,1.4-3,3v27.7c0,1.7,1.4,3,3,3h28.2c1.7,0,3-1.4,3-3V8.1C37.1,6.4,35.8,5,34.1,5L34.1,5z
		 M29.1,5V3.4c0-0.6,0.5-1,1-1H31c0.6,0,1,0.5,1,1v4.5c0,0.6-0.5,1-1,1h-0.8c-0.6,0-1-0.5-1-1V5z M8,5V3.4c0-0.6,0.5-1,1-1h0.8
		c0.6,0,1,0.5,1,1v4.5c0,0.6-0.5,1-1,1H9c-0.6,0-1-0.5-1-1V5z M35.9,35.8c0,1-0.8,1.8-1.8,1.8H5.9c-1,0-1.8-0.8-1.8-1.8v-21h31.9
		L35.9,35.8z M35.9,13.5H4.1V8.1c0-1,0.8-1.8,1.8-1.8h0.9v1.6c0,1.2,1,2.2,2.2,2.2h0.8c1.1,0,2-0.8,2.2-1.8c0-0.1,0-0.3,0-0.4V6.3
		h15.8v1.6c0,0.2,0,0.3,0,0.4c0.2,1,1.1,1.8,2.2,1.8H31c1.2,0,2.2-1,2.2-2.2V6.3h0.9c1,0,1.8,0.8,1.8,1.8L35.9,13.5z"/>
</g>
</svg>
