<?xml version="1.0" encoding="utf-8"?>
<!-- Generator: Adobe Illustrator 26.3.1, SVG Export Plug-In . SVG Version: 6.00 Build 0)  -->
<svg version="1.1" id="Laag_1" xmlns="http://www.w3.org/2000/svg" xmlns:xlink="http://www.w3.org/1999/xlink" x="0px" y="0px"
	 viewBox="0 0 40 40" style="enable-background:new 0 0 40 40;" xml:space="preserve">
<style type="text/css">
	.st0{fill:#8DA3B0;}
</style>

<path class="st0" d="M20,4c-0.4,0-1.1,0-1.8,0.6l-16,13.5c-0.2,0.1-0.3,0.3-0.4,0.6c0,0.2,0,0.5,0.2,0.6c0.2,0.2,0.4,0.3,0.6,0.3
	c0.2,0,0.5-0.1,0.6-0.3l16-13.5C19.4,5.8,20,5.7,20,5.7c0,0,0.2,0,0.3,0.1c0.2,0,0.3,0.1,0.4,0.2l16,13.5c0.2,0.2,0.4,0.3,0.6,0.3
	c0.2,0,0.5-0.1,0.6-0.3c0.2-0.2,0.2-0.4,0.2-0.6c0-0.2-0.2-0.4-0.4-0.6l-16-13.5c-0.3-0.3-0.7-0.4-1-0.5C20.5,4.1,20.2,4,20,4L20,4z
	 M6.9,19.4c-0.2,0-0.4,0.1-0.6,0.2c-0.2,0.2-0.2,0.4-0.2,0.6v14.9c0,0.5,0.4,0.8,0.8,0.8h26.2c0.5,0,0.8-0.4,0.8-0.8V20.3
	c0-0.2-0.1-0.4-0.2-0.6c-0.2-0.2-0.4-0.2-0.6-0.2c-0.2,0-0.4,0.1-0.6,0.2c-0.2,0.2-0.2,0.4-0.2,0.6v14.1H7.7V20.3
	c0-0.2-0.1-0.4-0.2-0.6C7.3,19.5,7.1,19.4,6.9,19.4L6.9,19.4z"/>
</svg>
