<?xml version="1.0" encoding="utf-8"?>
<!-- Generator: Adobe Illustrator 26.3.1, SVG Export Plug-In . SVG Version: 6.00 Build 0)  -->
<svg version="1.1" id="Laag_1" xmlns="http://www.w3.org/2000/svg" xmlns:xlink="http://www.w3.org/1999/xlink" x="0px" y="0px"
	 viewBox="0 0 40 40" style="enable-background:new 0 0 40 40;" xml:space="preserve">
<style type="text/css">
	.Slagschaduw{fill:none;}
	.Afgeronde_x0020_hoeken_x0020_2_x0020_pt{fill:#FFFFFF;stroke:#1D1D1B;stroke-miterlimit:10;}
	.X_x0020_actief_x0020_weerspiegelen{fill:none;}
	.Zachte_x0020_schuine_x0020_kant{fill:url(#SVGID_1_);}
	.Schemering{fill:#FFFFFF;}
	.Gebladerte_AS{fill:#FFDC00;}
	.Pompadoer_AS{fill-rule:evenodd;clip-rule:evenodd;fill:#51ADE1;}
	.st0{fill:#8DA3B0;}
</style>
<linearGradient id="SVGID_1_" gradientUnits="userSpaceOnUse" x1="0" y1="0" x2="0.7071" y2="0.7071">
	<stop  offset="0" style="stop-color:#E6E6EA"/>
	<stop  offset="0.1761" style="stop-color:#E2E2E6"/>
	<stop  offset="0.3567" style="stop-color:#D6D6DA"/>
	<stop  offset="0.5393" style="stop-color:#C1C2C5"/>
	<stop  offset="0.7233" style="stop-color:#A5A6A8"/>
	<stop  offset="0.9067" style="stop-color:#808384"/>
	<stop  offset="1" style="stop-color:#6B6E6E"/>
</linearGradient>
<g>
	<path class="st0" d="M20,1.6c-3.3,0-6.4,1.3-8.7,3.6C9,7.5,7.7,10.7,7.7,13.9c0,3.4,1.8,6.7,3.3,9.3c0.8,1.5,1.6,2.9,1.7,3.8
		c0.1,0.7,0.6,1.1,1.3,1.1c0.7-0.1,1.1-0.6,1.1-1.3c-0.1-1.3-1-2.9-2-4.7c-1.4-2.5-3-5.4-3-8.2c0-3.6,1.9-6.9,5-8.6s6.9-1.8,10,0
		s5,5.1,5,8.6c0,2.8-1.6,5.7-3,8.2c-1,1.8-1.9,3.4-2,4.7h0c-0.1,0.6,0.4,1.2,1.1,1.3h0.1c0.6,0,1.1-0.5,1.2-1.1
		c0.1-0.8,0.9-2.3,1.7-3.8c1.5-2.6,3.3-5.9,3.3-9.3c0-3.3-1.3-6.4-3.6-8.7C26.4,2.9,23.3,1.6,20,1.6L20,1.6z"/>
	<path class="st0" d="M25,34.6c-1.5,1-3.3,1.5-5.1,1.5c-1.8,0.1-3.6-0.5-5.1-1.5c-0.2-0.2-0.6-0.3-0.9-0.2c-0.3,0-0.6,0.2-0.8,0.5
		c-0.4,0.5-0.3,1.3,0.2,1.7c1.9,1.3,4.2,2,6.5,2c2.3,0.1,4.6-0.6,6.5-2c0.5-0.4,0.6-1.1,0.2-1.7C26.3,34.3,25.6,34.2,25,34.6
		L25,34.6z"/>
	<path class="st0" d="M25,30.5c-1.5,1-3.3,1.5-5.1,1.5c-1.8,0.1-3.6-0.5-5.1-1.5c-0.5-0.4-1.3-0.3-1.7,0.2c-0.4,0.5-0.3,1.3,0.2,1.7
		c1.9,1.3,4.2,2,6.5,2c2.3,0.1,4.6-0.6,6.5-2c0.5-0.4,0.6-1.1,0.2-1.7S25.6,30.1,25,30.5L25,30.5z"/>
</g>
</svg>
