<?xml version="1.0" encoding="utf-8"?>
<!-- Generator: Adobe Illustrator 26.3.1, SVG Export Plug-In . SVG Version: 6.00 Build 0)  -->
<svg version="1.1" id="Laag_1" xmlns="http://www.w3.org/2000/svg" xmlns:xlink="http://www.w3.org/1999/xlink" x="0px" y="0px"
	 viewBox="0 0 20 20" style="enable-background:new 0 0 20 20;" xml:space="preserve">
<style type="text/css">
	.Slagschaduw{fill:none;}
	.Afgeronde_x0020_hoeken_x0020_2_x0020_pt{fill:#FFFFFF;stroke:#000000;stroke-miterlimit:10;}
	.X_x0020_actief_x0020_weerspiegelen{fill:none;}
	.Zachte_x0020_schuine_x0020_kant{fill:url(#SVGID_1_);}
	.Schemering{fill:#FFFFFF;}
	.Gebladerte_AS{fill:#FFDD00;}
	.Pompadoer_AS{fill-rule:evenodd;clip-rule:evenodd;fill:#51AEE2;}
	.st0{fill:#54BBAE;}
</style>
<linearGradient id="SVGID_1_" gradientUnits="userSpaceOnUse" x1="0" y1="0" x2="0.7071" y2="0.7071">
	<stop  offset="0" style="stop-color:#E6E6EB"/>
	<stop  offset="0.1738" style="stop-color:#E2E2E6"/>
	<stop  offset="0.352" style="stop-color:#D5D4D8"/>
	<stop  offset="0.5323" style="stop-color:#C0BFC2"/>
	<stop  offset="0.7139" style="stop-color:#A4A2A4"/>
	<stop  offset="0.8949" style="stop-color:#828282"/>
	<stop  offset="1" style="stop-color:#6B6E6E"/>
</linearGradient>
<path class="st0" d="M1.4,11c0-4.5,3.5-8.2,8-8.6V1.8H7.7c-0.4,0-0.7-0.3-0.7-0.7c0-0.4,0.3-0.7,0.7-0.7h4.5c0.4,0,0.7,0.3,0.7,0.7
	c0,0.4-0.3,0.7-0.7,0.7h-1.5v0.6c1.7,0.1,3.2,0.7,4.4,1.6l0.7-0.7l-0.3-0.3c-0.3-0.3-0.3-0.7,0-1c0.3-0.3,0.7-0.3,1,0l1.6,1.6
	c0.3,0.3,0.3,0.7,0,1c-0.1,0.1-0.3,0.2-0.5,0.2c-0.2,0-0.3-0.1-0.5-0.2l-0.3-0.3l-0.7,0.7c1.6,1.6,2.5,3.7,2.5,6.1
	c0,4.8-3.9,8.6-8.6,8.6C5.2,19.6,1.4,15.7,1.4,11L1.4,11z M10,3.7c-4,0-7.3,3.3-7.3,7.3c0,4,3.3,7.3,7.3,7.3c4,0,7.3-3.3,7.3-7.3
	C17.3,7,14,3.7,10,3.7L10,3.7z M10,11.5c-0.4,0-0.7-0.3-0.7-0.7V6.7C9.3,6.3,9.6,6,10,6c0.4,0,0.7,0.3,0.7,0.7v3.5h2.2
	c0.4,0,0.7,0.3,0.7,0.7c0,0.4-0.3,0.7-0.7,0.7L10,11.5z"/>
</svg>
